<?xml version="1.0" standalone="no"?>
<!DOCTYPE svg PUBLIC "-//W3C//DTD SVG 20010904//EN"
 "http://www.w3.org/TR/2001/REC-SVG-20010904/DTD/svg10.dtd">
<svg version="1.0" xmlns="http://www.w3.org/2000/svg"
 width="398.000000pt" height="398.000000pt" viewBox="0 0 398.000000 398.000000"
 preserveAspectRatio="xMidYMid meet">

<g transform="translate(0.000000,398.000000) scale(0.100000,-0.100000)"
fill="#000000" stroke="none">
<path d="M1895 3620 c-3 -5 -19 -10 -35 -10 -16 0 -32 -4 -35 -10 -3 -5 -18
-10 -32 -10 -15 0 -36 -12 -53 -30 -15 -16 -32 -30 -37 -30 -5 0 -25 -18 -44
-41 -38 -45 -48 -89 -53 -224 -1 -44 -3 -97 -4 -117 l-2 -38 -550 0 c-387 0
-556 -3 -574 -11 -13 -7 -30 -24 -36 -39 -9 -21 -11 -273 -8 -963 l3 -935 23
-25 c23 -24 23 -25 5 -31 -39 -13 -84 -79 -241 -358 l-162 -286 0 -67 c0 -36
5 -75 11 -87 27 -50 -57 -48 1922 -48 l1844 0 34 23 c37 25 47 49 48 122 0 47
-10 69 -172 355 -142 249 -180 309 -210 329 l-36 24 19 25 c20 24 20 46 20
978 l0 953 -26 20 c-26 21 -36 21 -505 21 l-478 0 6 33 c3 17 9 37 13 42 13
17 14 48 3 105 -6 30 -11 66 -11 79 -1 17 -25 48 -77 99 -63 60 -81 73 -102
69 -15 -3 -27 1 -30 9 -3 8 -12 14 -20 14 -9 0 -21 8 -28 17 -13 17 -106 34
-185 34 -102 -1 -126 1 -134 10 -13 12 -63 12 -71 -1z m303 -379 c208 -44 232
-62 237 -173 2 -40 7 -91 12 -113 11 -47 -2 -125 -21 -125 -6 0 -18 16 -25 35
-29 80 -101 125 -202 125 -44 0 -91 -21 -77 -36 4 -4 -3 -19 -16 -35 -13 -16
-26 -33 -28 -38 -1 -6 -21 -7 -43 -4 -36 4 -42 10 -58 47 -9 22 -17 49 -17 59
0 32 -86 55 -183 49 -20 -1 -45 -19 -83 -57 -31 -30 -60 -55 -66 -55 -21 0 -2
98 29 148 17 28 32 68 35 96 6 53 28 82 72 96 50 16 328 4 434 -19z m-320
-269 c18 -9 43 -32 54 -51 21 -32 21 -33 2 -27 -38 12 -127 26 -164 26 -24 0
-43 -7 -55 -20 -18 -20 -18 -21 2 -47 16 -23 35 -30 107 -44 48 -10 95 -15
104 -12 10 3 1 -7 -18 -22 -21 -17 -27 -25 -15 -21 17 5 17 3 -4 -14 -50 -43
-121 -38 -170 12 -35 35 -46 74 -36 126 18 94 110 139 193 94z m-294 -31 c9
-13 -20 -21 -32 -9 -7 7 -13 -4 -17 -36 -11 -70 4 -157 31 -187 10 -11 15 -22
11 -25 -3 -3 -18 13 -33 36 -51 77 -43 230 12 230 12 0 25 -4 28 -9z m711 -15
c46 -20 74 -67 73 -127 0 -59 -25 -100 -73 -123 -53 -26 -109 -16 -149 24 -24
23 -26 29 -11 24 16 -6 14 0 -10 25 l-30 32 28 -10 c16 -6 65 -11 109 -11 86
0 118 14 118 51 0 33 -43 50 -139 56 l-92 6 23 25 c41 43 93 53 153 28z m-815
-83 c0 -78 21 -132 67 -178 18 -18 33 -46 37 -70 10 -50 28 -86 77 -152 21
-29 35 -54 31 -56 -4 -3 -22 -8 -39 -12 -43 -9 -75 -50 -71 -89 3 -32 -4 -36
-114 -60 -40 -9 -86 -53 -115 -110 -14 -28 -66 -143 -116 -256 l-90 -205 -8
-185 c-3 -102 -7 -186 -8 -187 0 -2 -131 -3 -291 -3 l-290 0 0 815 0 815 465
0 465 0 0 -67z m1950 -275 c0 -189 -3 -556 -7 -815 l-6 -473 -555 0 -554 0 5
123 c4 89 13 156 36 247 17 69 31 140 31 159 0 41 -11 45 197 -74 129 -74 175
-95 204 -95 92 0 121 32 192 217 32 81 57 162 57 180 0 18 5 43 12 57 8 18 8
33 1 48 -7 17 -6 34 3 61 7 20 10 37 6 37 -3 0 14 20 38 45 29 29 61 50 94 61
61 20 76 31 76 54 0 24 -20 30 -66 20 -21 -5 -40 -8 -41 -6 -2 1 18 17 42 34
53 37 64 58 42 79 -14 14 -21 13 -71 -16 -31 -17 -56 -28 -56 -25 0 3 13 23
29 43 45 58 54 80 40 97 -22 27 -48 15 -91 -42 -45 -60 -56 -59 -39 3 15 52
14 88 -3 102 -22 19 -45 2 -57 -43 -17 -65 -41 -129 -54 -149 -12 -17 -15 -14
-36 25 -27 47 -70 71 -91 50 -10 -10 -9 -19 6 -45 10 -18 22 -61 27 -97 4 -36
11 -75 15 -87 5 -17 2 -23 -9 -23 -9 0 -21 -16 -28 -37 -7 -21 -20 -44 -31
-51 -10 -7 -18 -20 -18 -29 0 -9 -6 -21 -14 -27 -7 -6 -21 -42 -30 -80 -9 -38
-18 -71 -20 -74 -3 -2 -53 25 -113 60 -171 102 -185 109 -243 127 -48 15 -55
20 -61 49 -3 17 -13 42 -22 55 -15 23 -14 25 23 53 48 35 106 109 115 146 4
15 16 30 27 34 41 13 97 75 118 130 39 105 20 194 -41 194 -31 0 -32 1 -23 24
5 14 57 16 475 16 l469 0 0 -342z m-1642 294 c3 -34 -6 -39 -39 -22 -21 12
-26 46 -6 53 27 12 42 1 45 -31z m54 16 c-9 -9 -15 -9 -24 0 -9 9 -7 12 12 12
19 0 21 -3 12 -12z m-200 -53 c10 -81 92 -155 173 -155 70 0 156 66 170 130 6
26 11 30 41 30 l34 0 0 -57 c0 -32 5 -65 10 -73 8 -12 10 -12 10 -1 0 8 10 1
22 -14 26 -33 91 -65 133 -65 70 0 156 66 170 130 8 35 25 40 25 8 0 -29 -25
-145 -45 -216 -10 -31 -31 -69 -53 -94 -45 -51 -179 -151 -246 -185 -45 -23
-58 -25 -120 -19 -87 8 -118 27 -204 125 -81 91 -125 154 -140 200 -20 58 -13
319 8 306 4 -2 10 -25 12 -50z m288 -1 c0 -9 -11 -14 -29 -14 -28 0 -28 1 -17
35 l11 36 18 -22 c9 -12 17 -27 17 -35z m17 24 c-3 -8 -6 -5 -6 6 -1 11 2 17
5 13 3 -3 4 -12 1 -19z m166 -13 c-3 -9 -8 -14 -10 -11 -3 3 -2 9 2 15 9 16
15 13 8 -4z m115 -4 c3 -8 -1 -12 -9 -9 -7 2 -15 10 -17 17 -3 8 1 12 9 9 7
-2 15 -10 17 -17z m-52 -21 c1 -27 -2 -30 -27 -30 -31 0 -40 25 -17 48 22 22
43 14 44 -18z m151 3 c5 -15 -25 -43 -46 -43 -13 0 -16 7 -13 34 4 31 6 33 30
27 14 -4 27 -12 29 -18z m207 11 c11 -27 7 -79 -10 -128 -16 -48 -79 -125 -91
-112 -4 3 2 13 13 20 29 21 65 99 73 162 7 47 5 54 -8 53 -26 -2 -33 0 -26 11
10 16 42 12 49 -6z m506 -161 c0 -5 -7 -40 -16 -79 -29 -123 -3 -132 76 -25
25 33 48 61 53 61 17 0 4 -26 -43 -90 -27 -37 -50 -73 -50 -79 0 -20 31 -12
91 25 87 52 96 35 11 -21 -100 -66 -95 -91 13 -64 71 18 75 4 5 -19 -49 -17
-73 -32 -101 -64 l-36 -42 -44 21 c-24 11 -58 24 -75 27 -39 9 -54 40 -61 121
-3 33 -12 73 -20 88 -20 40 -10 44 18 8 70 -88 89 -120 89 -150 0 -22 4 -31
13 -29 20 7 20 36 -1 76 -17 34 -18 40 -5 58 7 10 23 51 34 89 11 39 22 76 25
83 4 13 24 17 24 5z m-886 -449 c12 -11 13 -20 6 -34 -20 -38 -100 -60 -121
-34 -7 9 -31 25 -53 37 l-41 21 67 7 c38 3 71 9 75 12 12 13 51 7 67 -9z
m1296 -594 l0 -370 -1452 2 -1453 3 1448 2 1447 3 0 365 c0 201 2 365 5 365 3
0 5 -166 5 -370z m-1951 -30 c6 -28 11 -109 11 -180 l0 -130 -32 0 -33 0 6
162 c5 155 11 198 29 198 5 0 13 -23 19 -50z m-307 -436 c3 -3 4 -14 1 -24 -5
-18 -18 -19 -225 -22 -121 -2 -222 0 -224 4 -3 4 0 17 6 28 10 19 20 20 224
20 117 0 215 -3 218 -6z m2036 -24 l3 -25 -218 0 c-184 0 -219 2 -225 15 -18
40 -17 40 215 38 l222 -3 3 -25z m-2498 -30 c0 -6 85 -10 234 -10 146 0 237 4
241 10 9 14 1565 14 1565 0 0 -6 87 -10 240 -10 173 0 240 3 240 11 0 17 195
6 240 -14 19 -8 44 -25 56 -38 40 -46 344 -595 344 -622 0 -16 -8 -30 -19 -37
-14 -7 -611 -9 -1895 -8 l-1876 3 0 -27 c0 -37 18 -45 23 -11 3 21 4 19 6 -12
1 -39 1 -39 -18 -20 -14 14 -21 37 -23 80 l-3 60 170 298 c178 313 190 329
269 347 48 12 206 12 206 0z"/>
<path d="M1895 2631 c-8 -25 4 -51 24 -51 9 0 27 -7 39 -16 17 -12 35 -14 77
-9 59 8 81 28 68 62 -6 16 -8 15 -13 -6 -5 -20 -12 -24 -62 -27 -33 -3 -59 0
-63 6 -3 5 -18 10 -32 10 -22 0 -25 4 -21 25 6 29 -8 34 -17 6z"/>
<path d="M1665 2625 c3 -11 11 -42 17 -68 5 -27 12 -46 15 -44 9 9 -9 96 -24
114 -14 17 -14 17 -8 -2z"/>
<path d="M2318 2543 c-8 -10 -18 -24 -22 -31 -9 -16 -27 -76 -21 -70 5 5 63
118 60 118 -1 0 -9 -8 -17 -17z"/>
<path d="M1792 2531 c-16 -11 53 -95 93 -116 42 -20 155 -32 200 -21 27 7 105
72 105 88 0 6 -24 7 -62 3 -73 -8 -195 7 -273 33 -30 10 -58 16 -63 13z m106
-47 c32 -10 97 -17 153 -18 l98 -1 -25 -25 c-22 -23 -32 -25 -112 -25 -94 0
-139 17 -170 63 -17 26 -16 27 56 6z"/>
<path d="M1910 2371 c0 -18 81 -34 112 -22 20 7 16 10 -27 16 -27 4 -58 9 -67
12 -10 2 -18 0 -18 -6z"/>
<path d="M578 993 c-16 -38 -52 -116 -79 -174 -27 -58 -49 -109 -49 -112 0 -4
691 -7 1535 -7 844 0 1535 3 1535 8 -1 4 -36 84 -79 177 l-78 170 -1377 3
-1377 2 -31 -67z m177 47 c-3 -5 -32 -10 -64 -10 -31 0 -62 -5 -69 -12 -9 -9
-12 -9 -12 3 0 9 3 19 7 22 11 11 145 8 138 -3z m185 1 c0 -5 -38 -11 -85 -13
-81 -3 -94 0 -78 15 10 11 163 8 163 -2z m190 -1 c0 -6 -31 -10 -74 -10 -41 0
-82 -3 -90 -6 -12 -5 -15 -2 -10 10 5 13 22 16 90 16 49 0 84 -4 84 -10z m190
1 c0 -5 -40 -11 -89 -13 -68 -2 -87 0 -84 10 6 14 173 17 173 3z m180 0 c0 -5
-38 -11 -85 -13 -81 -3 -94 0 -78 15 10 11 163 8 163 -2z m190 -1 c0 -6 -31
-10 -74 -10 -41 0 -82 -3 -90 -6 -12 -5 -15 -2 -10 10 5 13 22 16 90 16 49 0
84 -4 84 -10z m190 1 c0 -5 -38 -11 -85 -13 -63 -2 -85 0 -85 10 0 9 24 12 85
12 47 0 85 -4 85 -9z m190 0 c0 -5 -38 -11 -85 -13 -63 -2 -85 0 -85 10 0 9
24 12 85 12 47 0 85 -4 85 -9z m190 0 c0 -5 -38 -11 -85 -13 -63 -2 -85 0 -85
10 0 9 24 12 85 12 47 0 85 -4 85 -9z m190 -1 c0 -6 -35 -10 -85 -10 -50 0
-85 4 -85 10 0 6 35 10 85 10 50 0 85 -4 85 -10z m187 -5 c4 -13 -158 -7 -172
6 -6 6 22 9 79 7 49 -2 91 -7 93 -13z m186 3 c3 -10 -16 -12 -84 -10 -49 2
-89 8 -89 13 0 14 167 11 173 -3z m191 -4 c5 -12 2 -15 -10 -10 -8 3 -49 6
-90 6 -43 0 -74 4 -74 10 0 6 35 10 84 10 68 0 85 -3 90 -16z m183 1 c2 -6
-28 -9 -82 -7 -47 2 -85 8 -85 13 0 13 162 7 167 -6z m161 -10 c3 -16 1 -18
-9 -7 -7 7 -38 12 -70 12 -32 0 -61 5 -64 10 -5 7 17 10 67 8 64 -3 73 -5 76
-23z m-2635 -32 c-102 -3 -114 -6 -124 -24 -6 -11 -13 -18 -16 -16 -2 3 0 15
7 26 10 20 18 21 128 19 l117 -2 -112 -3z m222 0 c-60 -3 -83 -8 -92 -20 -11
-14 -13 -15 -13 -2 0 26 10 29 99 27 l86 -2 -80 -3z m190 0 c-60 -3 -83 -8
-92 -20 -11 -14 -13 -15 -13 -2 0 26 10 29 99 27 l86 -2 -80 -3z m265 0 c0 -5
-35 -6 -77 -5 -65 3 -79 1 -90 -14 -11 -14 -13 -15 -13 -3 0 9 3 19 7 22 9 10
173 9 173 0z m196 0 c-4 -5 -46 -8 -92 -8 -46 0 -84 3 -84 8 0 4 41 7 92 7 50
0 88 -3 84 -7z m184 -1 c0 -5 -36 -8 -80 -8 -63 1 -80 -2 -84 -14 -2 -8 -4 -5
-5 8 -1 21 2 22 84 22 47 0 85 -4 85 -8z m118 1 c-72 -3 -87 -7 -91 -21 -3
-12 -5 -11 -6 6 -1 21 1 22 92 20 l92 -2 -87 -3z m272 0 c0 -5 -28 -7 -62 -5
-113 5 -125 9 -30 10 50 1 92 -1 92 -5z m190 0 c0 -5 -38 -8 -85 -8 -47 0 -85
3 -85 8 0 4 38 7 85 7 47 0 85 -3 85 -7z m170 1 c-58 -8 -150 -8 -150 -1 0 4
39 6 88 6 48 -1 76 -3 62 -5z m210 2 c0 -2 3 -13 6 -23 6 -17 6 -17 -7 -1 -11
13 -33 18 -94 21 l-80 3 88 2 c48 1 87 0 87 -2z m198 -21 c4 -19 3 -19 -10 -3
-10 13 -32 18 -93 21 l-80 3 90 0 c82 -1 90 -3 93 -21z m190 0 c4 -19 3 -19
-10 -3 -10 13 -32 18 -93 21 l-80 3 90 0 c82 -1 90 -3 93 -21z m252 4 c7 -11
9 -23 7 -26 -3 -2 -10 5 -16 16 -10 18 -22 21 -124 24 l-112 3 117 2 c110 2
118 1 128 -19z m-2503 -45 c-3 -3 -71 -5 -151 -5 l-146 2 -10 -26 c-5 -14 -14
-25 -20 -25 -6 0 -4 12 5 30 l16 30 156 0 c86 0 154 -3 150 -6z m116 -1 c-88
-4 -91 -4 -97 -30 -4 -14 -9 -23 -12 -20 -3 2 -2 16 2 31 6 26 6 26 103 24
l96 -2 -92 -3z m284 1 c-4 -4 -44 -6 -91 -5 -83 2 -84 2 -90 -25 -9 -34 -16
-28 -9 9 l5 27 96 0 c52 0 92 -3 89 -6z m203 -3 c0 -4 -39 -6 -87 -4 -64 3
-88 1 -94 -9 -7 -10 -9 -9 -9 5 0 15 11 17 95 17 52 0 95 -4 95 -9z m200 1 c0
-5 -40 -9 -90 -9 -49 -1 -90 3 -90 8 0 5 41 9 90 9 50 0 90 -4 90 -8z m175 2
c-72 -8 -155 -8 -155 -1 0 4 42 6 93 5 50 0 79 -3 62 -4z m183 -1 c-26 -2 -71
-2 -100 0 -29 2 -8 3 47 3 55 0 79 -1 53 -3z m242 0 c0 -5 -30 -7 -67 -5 -119
5 -131 9 -30 10 53 1 97 -1 97 -5z m200 0 c0 -9 -179 -8 -188 1 -3 3 38 6 91
6 54 0 97 -3 97 -7z m200 -10 c0 -14 -2 -15 -9 -5 -6 10 -31 13 -90 11 -45 -1
-84 1 -88 5 -3 3 37 6 90 6 86 0 97 -2 97 -17z m204 -9 c4 -15 5 -28 3 -31 -3
-2 -7 7 -11 21 -6 24 -9 25 -99 29 l-92 3 96 2 c97 2 97 2 103 -24z m200 0 c4
-15 5 -29 2 -31 -3 -3 -8 7 -12 21 -6 27 -7 27 -90 25 -47 -1 -87 1 -91 5 -3
3 37 6 89 6 95 0 96 0 102 -26z m331 -4 c9 -18 11 -30 5 -30 -6 0 -15 11 -20
25 l-10 26 -146 -2 c-80 0 -148 2 -151 5 -4 3 64 6 150 6 l156 0 16 -30z
m-1918 -22 c-3 -8 -6 -5 -6 6 -1 11 2 17 5 13 3 -3 4 -12 1 -19z m-537 -28 c0
-6 -76 -10 -209 -10 l-209 0 -6 -25 c-4 -14 -11 -25 -16 -25 -13 0 -13 6 5 40
l16 30 209 0 c133 0 210 -4 210 -10z m210 0 c0 -6 -37 -10 -90 -10 -87 0 -91
-1 -100 -25 -14 -37 -20 -30 -7 10 l10 35 94 0 c55 0 93 -4 93 -10z m200 0 c0
-6 -36 -10 -88 -10 -87 0 -88 0 -99 -27 l-12 -28 6 30 c3 17 8 33 10 38 6 11
183 9 183 -3z m205 0 c-3 -5 -44 -10 -90 -10 -82 0 -84 -1 -94 -27 -10 -26
-11 -26 -6 -3 2 14 5 31 5 38 0 9 26 12 96 12 61 0 93 -4 89 -10z m205 0 c0
-6 -37 -10 -90 -10 -82 0 -90 -2 -90 -19 0 -11 -4 -22 -8 -25 -4 -2 -6 11 -4
30 l4 34 94 0 c56 0 94 -4 94 -10z m200 0 c0 -6 -35 -10 -84 -10 -72 0 -85 -3
-89 -17 -3 -11 -5 -7 -6 10 l-1 27 90 0 c53 0 90 -4 90 -10z m190 0 c0 -6 -37
-10 -90 -10 -53 0 -90 4 -90 10 0 6 37 10 90 10 53 0 90 -4 90 -10z m210 0 c0
-6 -38 -10 -95 -10 -57 0 -95 4 -95 10 0 6 38 10 95 10 57 0 95 -4 95 -10z
m200 7 c0 -1 4 -17 9 -35 6 -20 6 -32 0 -32 -5 0 -9 11 -9 25 0 25 -1 25 -90
25 -53 0 -90 4 -90 10 0 6 37 10 90 10 50 0 90 -1 90 -3z m207 -22 c2 -11 0
-14 -3 -7 -4 8 -33 12 -95 12 -55 0 -89 4 -89 10 0 7 33 10 92 8 84 -3 93 -5
95 -23z m210 -10 c13 -40 7 -47 -7 -10 -9 24 -13 25 -100 25 -53 0 -90 4 -90
10 0 6 38 10 93 10 l94 0 10 -35z m181 10 c17 -37 14 -55 -4 -22 -14 26 -18
27 -89 27 -43 0 -75 4 -75 10 0 6 33 10 78 10 75 0 79 -1 90 -25z m267 -6 c9
-17 14 -33 11 -36 -3 -3 -11 6 -17 21 -12 26 -12 26 -131 26 -72 0 -118 4
-118 10 0 6 47 10 120 10 l119 0 16 -31z m-2750 -59 c-3 -5 -46 -10 -96 -10
-49 0 -89 -2 -89 -4 0 -2 -3 -11 -6 -20 -5 -13 3 -16 42 -18 l49 -1 -60 -6
c-33 -3 -61 -3 -63 1 -2 4 4 20 13 37 l16 31 100 0 c64 0 98 -4 94 -10z m210
0 c-3 -5 -46 -10 -95 -10 l-88 0 -11 -32 c-6 -17 -14 -29 -17 -25 -3 3 -1 22
6 41 l12 36 99 0 c64 0 98 -4 94 -10z m210 0 c-3 -5 -46 -10 -95 -10 -87 0
-90 -1 -96 -25 -3 -14 -10 -25 -15 -25 -8 0 3 39 17 61 3 5 48 9 100 9 61 0
93 -4 89 -10z m205 0 c0 -6 -36 -10 -89 -10 -88 0 -89 0 -100 -27 -10 -26 -11
-26 -6 -3 2 14 5 31 5 38 0 9 26 12 95 12 57 0 95 -4 95 -10z m1189 -17 c-1
-17 -3 -21 -6 -10 -4 16 -40 17 -579 17 l-574 0 -6 -25 c-9 -36 -17 -23 -9 14
l7 31 584 0 584 0 -1 -27z m193 -12 c5 -18 7 -36 4 -39 -3 -3 -9 9 -12 26 l-6
32 -79 0 c-43 0 -81 5 -84 10 -5 7 22 10 81 8 l88 -3 8 -34z m195 4 c6 -19 8
-35 3 -35 -4 0 -11 11 -14 25 -6 24 -9 25 -91 25 -50 0 -85 4 -85 10 0 6 36
10 88 10 l89 0 10 -35z m192 3 c13 -38 6 -52 -8 -14 -10 25 -13 26 -90 26 -44
0 -83 5 -86 10 -4 6 26 10 83 10 l90 0 11 -32z m197 -4 c8 -20 13 -39 9 -42
-3 -3 -11 9 -17 26 l-12 32 -83 0 c-49 0 -83 4 -83 10 0 6 35 10 86 10 l85 0
15 -36z m199 5 c9 -17 15 -33 13 -37 -2 -4 -30 -4 -63 -1 -60 6 -60 6 -12 7
40 2 48 5 45 20 -3 14 -17 17 -91 20 -115 4 -113 22 3 22 l89 0 16 -31z"/>
<path d="M1435 648 c-17 -78 -36 -201 -31 -205 7 -8 11 5 31 117 l18 96 536 3
c295 1 538 5 540 7 2 2 -242 4 -542 4 l-547 0 -5 -22z"/>
</g>
</svg>
